<?xml version="1.0" encoding="UTF-8" standalone="no"?>
<!DOCTYPE svg PUBLIC "-//W3C//DTD SVG 20010904//EN"
"http://www.w3.org/TR/2001/REC-SVG-20010904/DTD/svg10.dtd">
<!-- Created with Sodipodi ("http://www.sodipodi.com/") -->
<svg
   id="svg548"
   sodipodi:version="0.32"
   width="86.27000mm"
   height="95.15000mm"
   sodipodi:docname="/mnt/sda1/kana-no-quiz/devel/data/img/kana/src/h_cho.svg"
   sodipodi:docbase="/mnt/sda1/kana-no-quiz/devel/data/img/kana/src"
   xmlns="http://www.w3.org/2000/svg"
   xmlns:sodipodi="http://sodipodi.sourceforge.net/DTD/sodipodi-0.dtd"
   xmlns:xlink="http://www.w3.org/1999/xlink">
  <defs
     id="defs550">
    <linearGradient
       id="linearGradient567">
      <stop
         style="stop-color:#ffffff;stop-opacity:1;"
         offset="0.000000"
         id="stop568" />
      <stop
         style="stop-color:#ffba95;stop-opacity:1;"
         offset="1.000000"
         id="stop569" />
    </linearGradient>
    <linearGradient
       id="linearGradient561">
      <stop
         style="stop-color:#ffc9ff;stop-opacity:1;"
         offset="0.000000"
         id="stop562" />
      <stop
         style="stop-color:#00f3ff;stop-opacity:1;"
         offset="1.000000"
         id="stop563" />
    </linearGradient>
    <linearGradient
       xlink:href="#linearGradient567"
       id="linearGradient564"
       x1="0.49152541"
       y1="0.60156250"
       x2="0.49152541"
       y2="0.32031247"
       gradientUnits="objectBoundingBox"
       spreadMethod="pad" />
    <radialGradient
       xlink:href="#linearGradient567"
       id="radialGradient565"
       cx="0.55172408"
       cy="0.50781268"
       fx="0.55172408"
       fy="0.50781268"
       r="0.61206889"
       gradientUnits="objectBoundingBox"
       spreadMethod="pad" />
    <linearGradient
       xlink:href="#linearGradient561"
       id="linearGradient566" />
  </defs>
  <sodipodi:namedview
     id="base" />
  <rect
     style="font-size:12;fill:url(#linearGradient564);fill-rule:evenodd;stroke:none;stroke-width:0.375;stroke-linecap:square;stroke-linejoin:round;stroke-dashoffset:0;stroke-dasharray:none;stroke-opacity:1;"
     id="rect571"
     width="305.6812"
     height="337.1457"
     x="-7.275958e-12"
     y="-6.103516e-5" />
  <g
     id="g966"
     transform="matrix(0.623919,0.000000,0.000000,0.799980,0.770072,20.70241)">
    <path
       style="font-size:12;fill:none;fill-rule:evenodd;stroke:#2e4898;stroke-width:21.3371;stroke-linecap:round;"
       d="M 128.681 312.535 C 202.239 316.226 271.715 303.082 272.103 248.266 C 273.433 206.864 242.6 185.452 186.926 185.514 C 120.519 185.589 85.7896 228.382 85.846 208.155 C 85.8828 195.645 97.6274 75.2139 98.2204 67.9624 "
       id="path554"
       sodipodi:nodetypes="cssss"
       transform="matrix(1.045232,0.000000,0.000000,1.063851,-10.97321,-34.46555)" />
    <path
       style="font-size:12;fill:none;fill-rule:evenodd;stroke:#2e4898;stroke-width:23.9922;stroke-linecap:round;"
       d="M 41.1581 82.821 C 56.7486 85.3689 210.428 80.314 217.826 80.4511 "
       id="path563"
       sodipodi:nodetypes="cs"
       transform="matrix(0.826695,0.000000,0.000000,1.063851,-10.21613,-0.648224)" />
  </g>
  <g
     id="g694"
     transform="matrix(0.499070,0.000000,0.000000,0.497087,163.5765,108.2197)">
    <path
       style="font-size:12.000;fill:none;fill-rule:evenodd;stroke:#2e4898;stroke-width:22.50043;stroke-linecap:round;"
       d="M 248.484 287.876 C 213.972 267.949 48.272 197.852 48.1115 264.132 C 47.9989 309.22 148.005 305.327 147.639 257.556 C 147.438 230.509 146.268 59.1413 146.601 54.3702 "
       id="path698"
       sodipodi:nodetypes="csss" />
    <path
       style="font-size:12.000;fill:none;fill-rule:evenodd;stroke:#2e4898;stroke-width:22.50043;stroke-linecap:round;"
       d="M 230.469 116.929 C 227.046 117.155 151.684 116.81 148.947 117.259 "
       id="path699"
       sodipodi:nodetypes="cs" />
  </g>
</svg>
