<?xml version="1.0" encoding="UTF-8" standalone="no"?>
<!DOCTYPE svg PUBLIC "-//W3C//DTD SVG 20010904//EN"
"http://www.w3.org/TR/2001/REC-SVG-20010904/DTD/svg10.dtd">
<!-- Created with Sodipodi ("http://www.sodipodi.com/") -->
<svg
   xmlns="http://www.w3.org/2000/svg"
   xmlns:sodipodi="http://sodipodi.sourceforge.net/DTD/sodipodi-0.dtd"
   xmlns:xlink="http://www.w3.org/1999/xlink"
   id="svg548"
   sodipodi:version="0.34"
   width="86.27000mm"
   height="95.15000mm"
   sodipodi:docname="E:\choplair\MyBordel\Apps\ChoppyProg\kana-no-quiz\other\graphics\kana_image_sources\h_ju.svg">
  <defs
     id="defs550">
    <linearGradient
       id="linearGradient567">
      <stop
         style="stop-color:#ffffff;stop-opacity:1;"
         offset="0.000000"
         id="stop568" />
      <stop
         style="stop-color:#ffba95;stop-opacity:1;"
         offset="1.000000"
         id="stop569" />
    </linearGradient>
    <linearGradient
       id="linearGradient561">
      <stop
         style="stop-color:#ffc9ff;stop-opacity:1;"
         offset="0.000000"
         id="stop562" />
      <stop
         style="stop-color:#00f3ff;stop-opacity:1;"
         offset="1.000000"
         id="stop563" />
    </linearGradient>
    <linearGradient
       xlink:href="#linearGradient567"
       id="linearGradient564"
       x1="0.49152541"
       y1="0.60156250"
       x2="0.49152541"
       y2="0.32031247"
       gradientUnits="objectBoundingBox"
       spreadMethod="pad" />
    <radialGradient
       xlink:href="#linearGradient567"
       id="radialGradient565"
       cx="0.55172408"
       cy="0.50781268"
       fx="0.55172408"
       fy="0.50781268"
       r="0.61206889"
       gradientUnits="objectBoundingBox"
       spreadMethod="pad" />
    <linearGradient
       xlink:href="#linearGradient561"
       id="linearGradient566" />
  </defs>
  <sodipodi:namedview
     id="base" />
  <rect
     style="font-size:12;fill:url(#linearGradient564);fill-rule:evenodd;stroke:none;stroke-width:0.375;stroke-linecap:square;stroke-linejoin:round;stroke-dashoffset:0;stroke-dasharray:none;stroke-opacity:1;"
     id="rect571"
     width="305.681213"
     height="337.145691"
     x="-0.000000"
     y="-0.000053" />
  <g
     id="g943"
     transform="translate(-5.886738,12.54292)">
    <path
       style="font-size:12;fill:none;fill-rule:evenodd;stroke:#2e4898;stroke-width:18.3948;stroke-linecap:round;stroke-dasharray:none;"
       d="M 210.377 227.637 C 246.452 195.332 266.555 160.995 260.634 124.714 C 255.755 94.8493 241.042 72.727 205.909 79.0721 C 180.639 83.0642 114.168 93.5591 78.5939 99.2829 C 43.0199 105.007 44.7321 102.582 41.3321 100.127 "
       id="path554"
       sodipodi:nodetypes="cssss"
       transform="matrix(0.154088,0.943352,0.991116,-0.146661,-84.71951,29.52166)" />
    <g
       id="g733"
       transform="matrix(0.800043,0.000000,0.000000,0.799990,-67.54533,39.93392)">
      <path
         style="font-size:12.000;fill:none;fill-rule:evenodd;stroke:#2e4898;stroke-width:18.75036;"
         d="M 237.1802 19.65024 C 237.3579 20.22064 251.5163 45.77964 253.3238 48.57274 "
         id="path827"
         sodipodi:nodetypes="cc" />
      <path
         style="font-size:12.000;fill:none;fill-rule:evenodd;stroke:#2e4898;stroke-width:18.75036;"
         d="M 205.9038 36.12954 C 206.0815 36.70004 220.9128 63.60494 222.7204 66.39794 "
         id="path602"
         sodipodi:nodetypes="cc" />
    </g>
  </g>
  <g
     id="g663"
     transform="matrix(0.496607,0,0,0.49647,165.1979,118.6874)">
    <path
       style="font-size:12;fill:none;fill-rule:evenodd;stroke:#2e4898;stroke-width:22.5;stroke-linecap:round;stroke-dasharray:none;"
       d="M 44.61622 50.41729 C 43.23947 74.77814 36.3395 226.7607 50.77284 183.6489 C 75.2569 107.7277 112.5582 72.54339 172.5738 71.0161 C 233.3448 69.44511 263.6336 100.6192 263.2624 144.5406 C 262.8348 193.0152 224.5585 217.194 179.7442 216.7042 C 141.4207 216.2666 106.5274 197.3351 102.795 154.4545 "
       id="path628"
       sodipodi:nodetypes="csssss" />
    <path
       style="font-size:12;fill:none;fill-rule:evenodd;stroke:#2e4898;stroke-width:22.5;stroke-linecap:round;stroke-dasharray:none;"
       d="M 118.271 304.0631 C 126.566 300.264 175.9979 269.3312 178.3743 212.6234 C 180.8295 155.0736 179.073 37.65655 179.5283 34.66125 "
       id="path629"
       sodipodi:nodetypes="css" />
  </g>
</svg>
