<?xml version="1.0" encoding="UTF-8" standalone="no"?>
<!-- Created with Sodipodi ("http://www.sodipodi.com/") -->
<svg
   xmlns:dc="http://purl.org/dc/elements/1.1/"
   xmlns:cc="http://web.resource.org/cc/"
   xmlns:rdf="http://www.w3.org/1999/02/22-rdf-syntax-ns#"
   xmlns:svg="http://www.w3.org/2000/svg"
   xmlns="http://www.w3.org/2000/svg"
   xmlns:xlink="http://www.w3.org/1999/xlink"
   xmlns:sodipodi="http://sodipodi.sourceforge.net/DTD/sodipodi-0.dtd"
   xmlns:inkscape="http://www.inkscape.org/namespaces/inkscape"
   id="svg548"
   sodipodi:version="0.32"
   width="86.27000mm"
   height="95.15000mm"
   sodipodi:docname="h_myu.svg"
   sodipodi:docbase="/home/choplair/MyBordel/ChoppyProg/kana-no-quiz/cvs/kana-no-quiz/data/img/kana/default"
   inkscape:version="0.44"
   inkscape:export-filename="/home/choplair/MyBordel/ChoppyProg/kana-no-quiz/cvs/kana-no-quiz/data/img/kana/default/h_myu.png"
   inkscape:export-xdpi="60"
   inkscape:export-ydpi="60">
  <metadata
     id="metadata1948">
    <rdf:RDF>
      <cc:Work
         rdf:about="">
        <dc:format>image/svg+xml</dc:format>
        <dc:type
           rdf:resource="http://purl.org/dc/dcmitype/StillImage" />
      </cc:Work>
    </rdf:RDF>
  </metadata>
  <defs
     id="defs550">
    <linearGradient
       id="linearGradient567">
      <stop
         style="stop-color:#ffffff;stop-opacity:1;"
         offset="0.000000"
         id="stop568" />
      <stop
         style="stop-color:#ffba95;stop-opacity:1;"
         offset="1.000000"
         id="stop569" />
    </linearGradient>
    <linearGradient
       id="linearGradient561">
      <stop
         style="stop-color:#ffc9ff;stop-opacity:1;"
         offset="0.000000"
         id="stop562" />
      <stop
         style="stop-color:#00f3ff;stop-opacity:1;"
         offset="1.000000"
         id="stop563" />
    </linearGradient>
    <linearGradient
       xlink:href="#linearGradient567"
       id="linearGradient564"
       x1="0.49152541"
       y1="0.60156250"
       x2="0.49152541"
       y2="0.32031247"
       gradientUnits="objectBoundingBox"
       spreadMethod="pad" />
    <radialGradient
       xlink:href="#linearGradient567"
       id="radialGradient565"
       cx="0.55172408"
       cy="0.50781268"
       fx="0.55172408"
       fy="0.50781268"
       r="0.61206889"
       gradientUnits="objectBoundingBox"
       spreadMethod="pad" />
    <linearGradient
       xlink:href="#linearGradient561"
       id="linearGradient566" />
  </defs>
  <sodipodi:namedview
     id="base" />
  <rect
     style="font-size:12;fill:url(#linearGradient564);fill-rule:evenodd;stroke:none;stroke-width:0.375;stroke-linecap:square;stroke-linejoin:round;stroke-dashoffset:0;stroke-dasharray:none;stroke-opacity:1;"
     id="rect571"
     width="305.6812"
     height="337.1457"
     x="-7.275958e-12"
     y="-6.103516e-5" />
  <g
     id="g663"
     transform="matrix(0.496617,0.000000,0.000000,0.496470,167.6350,118.6874)">
    <path
       style="font-size:12;fill:none;fill-rule:evenodd;stroke:#2e4898;stroke-width:22.5;stroke-linecap:round;stroke-dasharray:none;"
       d="M 44.61622 50.41729 C 43.23947 74.77814 36.3395 226.7607 50.77284 183.6489 C 75.2569 107.7277 112.5582 72.54339 172.5738 71.0161 C 233.3448 69.44511 263.6336 100.6192 263.2624 144.5406 C 262.8348 193.0152 224.5585 217.194 179.7442 216.7042 C 141.4207 216.2666 106.5274 197.3351 102.795 154.4545 "
       id="path628"
       sodipodi:nodetypes="csssss" />
    <path
       style="font-size:12;fill:none;fill-rule:evenodd;stroke:#2e4898;stroke-width:22.5;stroke-linecap:round;stroke-dasharray:none;"
       d="M 118.271 304.0631 C 126.566 300.264 175.9979 269.3312 178.3743 212.6234 C 180.8295 155.0736 179.073 37.65655 179.5283 34.66125 "
       id="path629"
       sodipodi:nodetypes="css" />
  </g>
  <g
     id="g1855"
     transform="matrix(0.720217,0.000000,0.000000,0.799999,-19.70895,34.92942)">
    <path
       style="font-size:12;fill:none;fill-rule:evenodd;stroke:#2e4898;stroke-width:21.6005;stroke-linecap:round;"
       d="M 276.751 223.635 C 273.322 221.419 225.723 197.458 180.828 188.254 C 130.09 177.642 79.6052 173.714 66.3851 213.371 C 58.6249 238.601 71.0914 255.164 85.3635 258.059 C 95.68 260.012 118.632 258.172 124.928 221.478 C 128.176 198.879 145.867 93.4433 149.649 53.9571 C 150.417 46.4733 149.091 43.95 138.307 46.8054 C 127.522 49.6607 92.9672 64.2522 83.4987 67.6867 "
       id="path1859"
       sodipodi:nodetypes="csssssss"
       transform="matrix(1.060526,0.000000,0.000000,1.023097,-26.62504,-4.210572)" />
    <path
       style="font-size:12;fill:none;fill-rule:evenodd;stroke:#2e4898;stroke-width:21.4546;stroke-linecap:round;"
       d="M 260.536 144.296 C 261.924 187.807 250.778 243.744 237.702 275.178 "
       id="path564"
       sodipodi:nodetypes="cs"
       transform="matrix(0.967439,0.137286,-0.125228,1.119070,-13.73426,-47.18096)" />
  </g>
</svg>
