<?xml version="1.0" encoding="UTF-8" standalone="no"?>
<!DOCTYPE svg PUBLIC "-//W3C//DTD SVG 20010904//EN"
"http://www.w3.org/TR/2001/REC-SVG-20010904/DTD/svg10.dtd">
<!-- Created with Sodipodi ("http://www.sodipodi.com/") -->
<svg
   id="svg548"
   sodipodi:version="0.32"
   width="86.27000mm"
   height="95.15000mm"
   sodipodi:docname="/mnt/sda1/kana-no-quiz/devel/data/img/kana/src/h_pyo.svg"
   sodipodi:docbase="/mnt/sda1/kana-no-quiz/devel/data/img/kana/src/"
   xmlns="http://www.w3.org/2000/svg"
   xmlns:sodipodi="http://sodipodi.sourceforge.net/DTD/sodipodi-0.dtd"
   xmlns:xlink="http://www.w3.org/1999/xlink">
  <defs
     id="defs550">
    <linearGradient
       id="linearGradient567">
      <stop
         style="stop-color:#ffffff;stop-opacity:1;"
         offset="0.000000"
         id="stop568" />
      <stop
         style="stop-color:#ffba95;stop-opacity:1;"
         offset="1.000000"
         id="stop569" />
    </linearGradient>
    <linearGradient
       id="linearGradient561">
      <stop
         style="stop-color:#ffc9ff;stop-opacity:1;"
         offset="0.000000"
         id="stop562" />
      <stop
         style="stop-color:#00f3ff;stop-opacity:1;"
         offset="1.000000"
         id="stop563" />
    </linearGradient>
    <linearGradient
       xlink:href="#linearGradient567"
       id="linearGradient564"
       x1="0.49152541"
       y1="0.60156250"
       x2="0.49152541"
       y2="0.32031247"
       gradientUnits="objectBoundingBox"
       spreadMethod="pad" />
    <radialGradient
       xlink:href="#linearGradient567"
       id="radialGradient565"
       cx="0.55172408"
       cy="0.50781268"
       fx="0.55172408"
       fy="0.50781268"
       r="0.61206889"
       gradientUnits="objectBoundingBox"
       spreadMethod="pad" />
    <linearGradient
       xlink:href="#linearGradient561"
       id="linearGradient566" />
  </defs>
  <sodipodi:namedview
     id="base" />
  <rect
     style="font-size:12;fill:url(#linearGradient564);fill-rule:evenodd;stroke:none;stroke-width:0.375;stroke-linecap:square;stroke-linejoin:round;stroke-dashoffset:0;stroke-dasharray:none;stroke-opacity:1;"
     id="rect571"
     width="305.6812"
     height="337.1457"
     x="-7.275958e-12"
     y="-6.103516e-5" />
  <g
     id="g694"
     transform="matrix(0.499070,0.000000,0.000000,0.497087,171.5788,115.1189)">
    <path
       style="font-size:12.000;fill:none;fill-rule:evenodd;stroke:#2e4898;stroke-width:22.50043;stroke-linecap:round;"
       d="M 248.484 287.876 C 213.972 267.949 48.272 197.852 48.1115 264.132 C 47.9989 309.22 148.005 305.327 147.639 257.556 C 147.438 230.509 146.268 59.1413 146.601 54.3702 "
       id="path698"
       sodipodi:nodetypes="csss" />
    <path
       style="font-size:12.000;fill:none;fill-rule:evenodd;stroke:#2e4898;stroke-width:22.50043;stroke-linecap:round;"
       d="M 230.469 116.929 C 227.046 117.155 151.684 116.81 148.947 117.259 "
       id="path699"
       sodipodi:nodetypes="cs" />
  </g>
  <g
     id="g1911"
     transform="translate(0.000000,-1.165154)">
    <path
       style="font-size:12;fill:none;fill-rule:evenodd;stroke:#2e4898;stroke-width:21.6577;stroke-linecap:round;"
       d="M 21.06787 89.51799 C 61.72003 86.16519 113.5993 59.57971 103.0808 72.9061 C 83.43217 100.4622 66.59431 139.8635 59.97248 181.8437 C 51.85617 226.4523 61.99375 281.0933 117.4758 289.8034 C 180.8419 299.5917 200.8933 242.5521 208.2149 215.0652 C 219.3215 171.8617 221.121 117.2235 217.4328 83.99207 C 213.2503 64.33908 237.6192 124.8591 281.1054 150.7254 "
       id="path554"
       sodipodi:nodetypes="cssssss"
       transform="matrix(0.799981,0.000000,0.000000,0.799975,-6.626687,30.58216)" />
    <path
       sodipodi:type="arc"
       style="fill-rule:evenodd;stroke:#2e4898;fill:none;fill-opacity:1;stroke-opacity:1;stroke-width:13.1711;stroke-linejoin:miter;stroke-linecap:butt;stroke-dasharray:none;"
       id="path748"
       d="M 399.878052 318.543396 A 14.889069 14.889099 0 1 0 370.099915,318.543396 A 14.8891 14.8891 0 1 0 399.878 318.543 L 384.988983 318.543396 z"
       sodipodi:cx="384.988983"
       sodipodi:cy="318.543396"
       sodipodi:rx="14.889069"
       sodipodi:ry="14.889099"
       transform="matrix(0.873146,0.000000,0.000000,0.873169,-128.9498,-197.5948)" />
  </g>
</svg>
